# xmcd CD database file
#
# Track frame offsets:
#	150
#	9477
#	26650
#	40854
#	68278
#	93637
#	104220
#	115194
#	126003
#	145756
#	154572
#	173106
#	184792
#	200243
#
# Disc length: 2778 seconds
#
# Revision: 0
# Processed by: cddbd v1.5.2PL0 Copyright (c) Steve Scherf et al.
# Submitted via: CDex 1.70beta2
#
DISCID=bc0ad80e
DTITLE=Barbara Swetina and The Minstrels - Soul Weavers - Songs for the Journey Home
DYEAR=2009
DGENRE=New Age
TTITLE0=Flute and Invocation
TTITLE1=Soul Weavers
TTITLE2=Listen to the Silence
TTITLE3=Ancestors
TTITLE4=He ke hau
TTITLE5=Be still
TTITLE6=O so so
TTITLE7=Daria's Delight
TTITLE8=You are the Place
TTITLE9=Present Moment
TTITLE10=We are all Lamps
TTITLE11=Bismillah
TTITLE12=Take, oh take me
TTITLE13=Flute and Sea
EXTD=YEAR: 2009
EXTT0=
EXTT1=
EXTT2=
EXTT3=
EXTT4=
EXTT5=
EXTT6=
EXTT7=
EXTT8=
EXTT9=
EXTT10=
EXTT11=
EXTT12=
EXTT13=
PLAYORDER=
